<svg width="960" height="540" viewBox="0 0 960 540" fill="none" xmlns="http://www.w3.org/2000/svg">
  <rect width="960" height="540" fill="#070912"/>
  <path d="M0 380C145 318 233 334 337 371C485 424 589 419 713 363C811 319 874 309 960 332V540H0V380Z" fill="#101827"/>
  <path d="M0 0H960V540H0V0Z" fill="url(#sky)"/>
  <g opacity=".85">
    <rect x="76" y="172" width="96" height="250" rx="4" fill="#111D35"/>
    <rect x="216" y="108" width="120" height="318" rx="4" fill="#15233E"/>
    <rect x="380" y="150" width="94" height="276" rx="4" fill="#111D35"/>
    <rect x="520" y="84" width="136" height="344" rx="4" fill="#15233E"/>
    <rect x="704" y="132" width="112" height="292" rx="4" fill="#111D35"/>
  </g>
  <g opacity=".9">
    <path d="M42 456H918" stroke="#42E8FF" stroke-width="3"/>
    <path d="M142 540L422 286H536L812 540" stroke="#2E83FF" stroke-width="5"/>
    <path d="M277 540L458 286M683 540L502 286" stroke="#9F7CFF" stroke-width="2"/>
  </g>
  <g fill="#42E8FF">
    <rect x="101" y="202" width="16" height="9" rx="2"/>
    <rect x="132" y="232" width="16" height="9" rx="2"/>
    <rect x="246" y="144" width="18" height="9" rx="2"/>
    <rect x="288" y="184" width="18" height="9" rx="2"/>
    <rect x="553" y="123" width="20" height="9" rx="2"/>
    <rect x="610" y="166" width="20" height="9" rx="2"/>
    <rect x="731" y="174" width="18" height="9" rx="2"/>
    <rect x="772" y="220" width="18" height="9" rx="2"/>
  </g>
  <circle cx="763" cy="105" r="58" fill="#9F7CFF" opacity=".55"/>
  <defs>
    <linearGradient id="sky" x1="108" y1="31" x2="819" y2="502" gradientUnits="userSpaceOnUse">
      <stop stop-color="#101827"/>
      <stop offset=".47" stop-color="#07101E" stop-opacity=".35"/>
      <stop offset="1" stop-color="#2E83FF" stop-opacity=".22"/>
    </linearGradient>
  </defs>
</svg>
