<svg width="960" height="540" viewBox="0 0 960 540" fill="none" xmlns="http://www.w3.org/2000/svg">
  <rect width="960" height="540" fill="#06080D"/>
  <rect x="68" y="98" width="824" height="344" rx="22" fill="#0D1322" stroke="#20304F"/>
  <path d="M104 270H856" stroke="#1A2944" stroke-width="2"/>
  <g fill="#58FFB0">
    <rect x="126" y="232" width="8" height="76" rx="4"/>
    <rect x="154" y="190" width="8" height="160" rx="4"/>
    <rect x="182" y="250" width="8" height="40" rx="4"/>
    <rect x="210" y="168" width="8" height="204" rx="4"/>
    <rect x="238" y="218" width="8" height="104" rx="4"/>
    <rect x="266" y="145" width="8" height="250" rx="4"/>
    <rect x="294" y="238" width="8" height="64" rx="4"/>
    <rect x="322" y="180" width="8" height="180" rx="4"/>
    <rect x="350" y="214" width="8" height="112" rx="4"/>
    <rect x="378" y="120" width="8" height="300" rx="4"/>
    <rect x="406" y="228" width="8" height="84" rx="4"/>
    <rect x="434" y="166" width="8" height="208" rx="4"/>
    <rect x="462" y="248" width="8" height="44" rx="4"/>
    <rect x="490" y="158" width="8" height="224" rx="4"/>
    <rect x="518" y="218" width="8" height="104" rx="4"/>
    <rect x="546" y="132" width="8" height="276" rx="4"/>
    <rect x="574" y="250" width="8" height="40" rx="4"/>
    <rect x="602" y="194" width="8" height="152" rx="4"/>
    <rect x="630" y="230" width="8" height="80" rx="4"/>
    <rect x="658" y="154" width="8" height="232" rx="4"/>
    <rect x="686" y="208" width="8" height="124" rx="4"/>
    <rect x="714" y="184" width="8" height="172" rx="4"/>
    <rect x="742" y="242" width="8" height="56" rx="4"/>
    <rect x="770" y="216" width="8" height="108" rx="4"/>
    <rect x="798" y="254" width="8" height="32" rx="4"/>
    <rect x="826" y="236" width="8" height="68" rx="4"/>
  </g>
  <path d="M126 270C184 176 226 344 277 230C339 92 370 423 438 219C507 13 536 468 606 218C671 92 705 388 754 244C800 111 823 338 846 270" stroke="#42E8FF" stroke-width="3" opacity=".72"/>
</svg>
